<svg xmlns="http://www.w3.org/2000/svg" xmlns:xlink="http://www.w3.org/1999/xlink" width="500" zoomAndPan="magnify" viewBox="0 0 375 374.999991" height="500" preserveAspectRatio="xMidYMid meet" version="1.0"><defs><g/><clipPath id="c76b0b453b"><path d="M 135.414062 122 L 262 122 L 262 206 L 135.414062 206 Z M 135.414062 122 " clip-rule="nonzero"/></clipPath><clipPath id="c51c8f59ff"><path d="M 190 91 L 223 91 L 223 117 L 190 117 Z M 190 91 " clip-rule="nonzero"/></clipPath><clipPath id="f85c6f9dfc"><path d="M 183.835938 170.90625 L 191.777344 88.695312 L 243.398438 93.683594 L 235.457031 175.890625 Z M 183.835938 170.90625 " clip-rule="nonzero"/></clipPath><clipPath id="c0bf8d73f3"><path d="M 183.835938 170.90625 L 191.777344 88.695312 L 243.398438 93.683594 L 235.457031 175.890625 Z M 183.835938 170.90625 " clip-rule="nonzero"/></clipPath><clipPath id="0bdbfe3349"><path d="M 183.835938 170.90625 L 191.777344 88.695312 L 243.398438 93.683594 L 235.457031 175.890625 Z M 183.835938 170.90625 " clip-rule="nonzero"/></clipPath><clipPath id="109c0cac88"><path d="M 183 88 L 244 88 L 244 176 L 183 176 Z M 183 88 " clip-rule="nonzero"/></clipPath><clipPath id="eb439630b7"><path d="M 183.835938 170.90625 L 191.777344 88.695312 L 243.398438 93.683594 L 235.457031 175.890625 Z M 183.835938 170.90625 " clip-rule="nonzero"/></clipPath><clipPath id="079820e9d7"><path d="M 183.835938 170.90625 L 191.777344 88.695312 L 243.398438 93.683594 L 235.457031 175.890625 Z M 183.835938 170.90625 " clip-rule="nonzero"/></clipPath><clipPath id="0f73dc3259"><path d="M 183.835938 170.90625 L 191.777344 88.695312 L 243.398438 93.683594 L 235.457031 175.890625 Z M 183.835938 170.90625 " clip-rule="nonzero"/></clipPath><clipPath id="f831d22f24"><path d="M 177.429688 205.828125 L 197.597656 205.828125 L 197.597656 243.28125 L 177.429688 243.28125 Z M 177.429688 205.828125 " clip-rule="nonzero"/></clipPath></defs><rect x="-37.5" width="450" fill="#ffffff" y="-37.499999" height="449.999989" fill-opacity="1"/><rect x="-37.5" width="450" fill="#ffffff" y="-37.499999" height="449.999989" fill-opacity="1"/><rect x="-37.5" width="450" fill="#ffffff" y="-37.499999" height="449.999989" fill-opacity="1"/><g fill="#272727" fill-opacity="1"><g transform="translate(49.002287, 275.58235)"><g><path d="M 13 -7.71875 L 5.363281 -24.429688 C 4.785156 -25.710938 3.921875 -26.289062 2.847656 -26.289062 C 1.320312 -26.289062 -0.125 -24.71875 0.742188 -22.820312 L 10.605469 -1.363281 C 10.976562 -0.414062 11.800781 0 12.75 0 C 13.742188 0 14.734375 -0.496094 15.105469 -1.277344 L 22.695312 -16.425781 L 30.371094 -1.277344 C 30.828125 -0.332031 31.570312 0 32.519531 0 C 33.46875 0 34.375 -0.453125 34.789062 -1.363281 L 44.816406 -22.984375 C 45.722656 -24.964844 44.03125 -26.289062 42.589844 -26.289062 C 41.515625 -26.289062 40.648438 -25.628906 40.195312 -24.636719 L 32.476562 -7.71875 L 24.964844 -22.695312 C 24.511719 -23.523438 23.5625 -23.976562 22.65625 -23.976562 C 21.707031 -23.976562 20.882812 -23.523438 20.511719 -22.613281 Z M 13 -7.71875 "/></g></g></g><g fill="#272727" fill-opacity="1"><g transform="translate(99.223607, 275.58235)"><g><path d="M 21.746094 -26.289062 C 20.550781 -26.289062 19.394531 -25.542969 19.394531 -24.140625 L 19.394531 -14.734375 L 7.058594 -14.734375 L 7.058594 -24.140625 C 7.058594 -25.542969 5.820312 -26.289062 4.621094 -26.289062 C 3.425781 -26.289062 2.3125 -25.542969 2.3125 -24.140625 L 2.3125 -2.226562 C 2.3125 -0.785156 3.507812 0 4.746094 0 C 5.859375 0 7.058594 -0.703125 7.058594 -2.226562 L 7.058594 -10.730469 L 19.394531 -10.730469 L 19.394531 -2.226562 C 19.394531 -0.742188 20.550781 0 21.746094 0 C 22.902344 0 24.183594 -0.742188 24.183594 -2.226562 L 24.183594 -24.140625 C 24.183594 -25.542969 22.902344 -26.289062 21.746094 -26.289062 Z M 21.746094 -26.289062 "/></g></g></g><g fill="#272727" fill-opacity="1"><g transform="translate(129.348292, 275.58235)"><g><path d="M 1.855469 -24.058594 L 1.855469 -2.105469 C 1.855469 -0.660156 3.011719 0 4.25 0 C 5.449219 0 6.683594 -0.703125 6.683594 -2.105469 L 6.683594 -24.058594 C 6.683594 -25.585938 5.449219 -26.289062 4.25 -26.289062 C 3.011719 -26.289062 1.855469 -25.585938 1.855469 -24.058594 Z M 1.855469 -24.058594 "/></g></g></g><g fill="#272727" fill-opacity="1"><g transform="translate(140.366731, 275.58235)"><g><path d="M 21.375 -26.289062 L 1.277344 -26.289062 C -0.332031 -26.289062 -1.03125 -25.214844 -1.03125 -24.140625 C -1.03125 -23.109375 -0.332031 -22.035156 1.277344 -22.035156 L 8.914062 -22.035156 L 8.914062 -2.1875 C 8.914062 -0.703125 10.152344 0 11.308594 0 C 12.378906 0 13.742188 -0.703125 13.742188 -2.1875 L 13.699219 -22.035156 L 21.375 -22.035156 C 22.945312 -22.035156 23.8125 -23.109375 23.8125 -24.140625 C 23.8125 -25.214844 22.945312 -26.289062 21.375 -26.289062 Z M 21.375 -26.289062 "/></g></g></g><g fill="#272727" fill-opacity="1"><g transform="translate(166.612394, 275.58235)"><g><path d="M 21.5 -4.125 L 7.097656 -4.125 L 7.097656 -10.976562 L 20.757812 -10.976562 C 22.203125 -10.976562 22.902344 -11.96875 22.902344 -12.957031 C 22.902344 -13.988281 22.160156 -15.019531 20.757812 -15.019531 L 7.097656 -15.019531 L 7.097656 -22.242188 L 21.5 -22.242188 C 22.902344 -22.242188 23.6875 -23.316406 23.6875 -24.304688 C 23.6875 -25.339844 22.984375 -26.289062 21.5 -26.289062 L 5.117188 -26.289062 C 3.464844 -26.289062 2.394531 -25.171875 2.394531 -23.851562 L 2.394531 -2.476562 C 2.394531 -1.113281 3.464844 0 5.117188 0 L 21.5 0 C 23.027344 0 23.769531 -0.992188 23.769531 -1.980469 C 23.769531 -3.011719 22.945312 -4.125 21.5 -4.125 Z M 21.5 -4.125 "/></g></g></g><g fill="#272727" fill-opacity="1"><g transform="translate(194.921366, 275.58235)"><g/></g></g><g fill="#272727" fill-opacity="1"><g transform="translate(208.126913, 275.58235)"><g><path d="M 4.828125 0 L 20.714844 0 C 22.324219 0 23.191406 -0.992188 23.191406 -2.0625 C 23.191406 -3.054688 22.324219 -4.125 20.714844 -4.125 L 7.179688 -4.125 L 7.179688 -24.183594 C 7.179688 -25.585938 5.941406 -26.289062 4.785156 -26.289062 C 3.550781 -26.289062 2.351562 -25.585938 2.351562 -24.183594 L 2.351562 -2.226562 C 2.351562 -0.785156 3.054688 0 4.828125 0 Z M 4.828125 0 "/></g></g></g><g fill="#272727" fill-opacity="1"><g transform="translate(233.836116, 275.58235)"><g><path d="M 13.496094 -26.699219 C 12.421875 -26.699219 11.761719 -26.453125 11.347656 -25.542969 L -0.414062 -2.515625 C -1.15625 -0.90625 0.453125 0.414062 1.898438 0.414062 C 2.683594 0.414062 3.550781 0.0820312 3.960938 -0.785156 L 6.851562 -6.519531 L 20.136719 -6.519531 L 23.027344 -0.785156 C 23.441406 0 24.347656 0.414062 25.132812 0.414062 C 26.699219 0.414062 28.351562 -0.824219 27.277344 -2.640625 L 15.597656 -25.542969 C 15.1875 -26.371094 14.359375 -26.699219 13.496094 -26.699219 Z M 13.496094 -19.726562 L 18.117188 -10.523438 L 8.871094 -10.523438 Z M 13.496094 -19.726562 "/></g></g></g><g fill="#272727" fill-opacity="1"><g transform="translate(264.538528, 275.58235)"><g><path d="M 4.871094 -26.289062 C 3.671875 -26.289062 2.515625 -25.378906 2.515625 -23.933594 L 2.515625 -2.144531 C 2.515625 -0.703125 3.714844 0 4.910156 0 C 6.066406 0 7.304688 -0.703125 7.304688 -2.144531 L 7.304688 -16.011719 L 13.371094 -6.5625 C 13.824219 -5.734375 14.773438 -5.242188 15.597656 -5.242188 C 16.425781 -5.242188 17.292969 -5.613281 17.746094 -6.4375 L 23.894531 -16.054688 L 23.894531 -2.144531 C 23.894531 -0.703125 25.050781 0 26.246094 0 C 27.402344 0 28.679688 -0.703125 28.679688 -2.144531 L 28.679688 -23.976562 C 28.679688 -25.460938 27.566406 -26.289062 26.371094 -26.289062 C 25.585938 -26.289062 24.71875 -25.914062 24.183594 -25.089844 L 15.597656 -11.554688 L 6.972656 -25.050781 C 6.480469 -25.832031 5.652344 -26.289062 4.871094 -26.289062 Z M 4.871094 -26.289062 "/></g></g></g><g fill="#272727" fill-opacity="1"><g transform="translate(299.573875, 275.58235)"><g><path d="M 7.140625 -7.304688 L 13.082031 -7.304688 C 20.015625 -7.304688 24.058594 -11.019531 24.058594 -16.589844 C 24.058594 -22.40625 20.054688 -26.289062 13.207031 -26.289062 L 4.785156 -26.289062 C 3.464844 -26.289062 2.394531 -25.421875 2.394531 -24.140625 L 2.394531 -2.0625 C 2.394531 -0.703125 3.550781 0 4.746094 0 C 5.902344 0 7.140625 -0.660156 7.140625 -2.105469 Z M 7.140625 -22.203125 L 13.246094 -22.203125 C 17.167969 -22.203125 19.355469 -19.972656 19.355469 -16.589844 C 19.355469 -13.453125 17.125 -11.390625 13.082031 -11.390625 L 7.140625 -11.390625 Z M 7.140625 -22.203125 "/></g></g></g><g clip-path="url(#c76b0b453b)"><path fill="#000000" d="M 145.445312 195.566406 C 146.617188 201.054688 151.476562 205.019531 157.046875 205.019531 L 215.785156 205.019531 C 221.355469 205.019531 226.214844 201.054688 227.386719 195.566406 L 241.171875 130.382812 C 241.507812 128.742188 242.953125 127.5625 244.617188 127.5625 L 259.355469 127.5625 C 260.800781 127.5625 261.96875 126.386719 261.96875 124.929688 C 261.96875 123.472656 260.800781 122.292969 259.355469 122.292969 L 244.617188 122.292969 C 240.492188 122.292969 236.894531 125.238281 236.03125 129.296875 L 227.476562 169.808594 L 168.402344 169.808594 L 178 160.140625 C 179.015625 159.117188 179.015625 157.441406 178 156.417969 C 176.984375 155.398438 175.324219 155.398438 174.308594 156.417969 L 160.246094 170.585938 C 159.230469 171.609375 159.230469 173.28125 160.246094 174.304688 L 174.277344 188.4375 C 174.800781 188.964844 175.445312 189.214844 176.125 189.214844 C 176.800781 189.214844 177.476562 188.964844 177.96875 188.4375 C 178.984375 187.414062 178.984375 185.742188 177.96875 184.71875 L 168.371094 175.046875 L 226.308594 175.046875 L 222.214844 194.484375 C 221.570312 197.550781 218.863281 199.75 215.753906 199.75 L 157.015625 199.75 C 153.90625 199.75 151.199219 197.519531 150.554688 194.484375 L 140.984375 149.199219 C 140.769531 148.144531 141.015625 147.058594 141.691406 146.222656 C 142.371094 145.386719 143.386719 144.890625 144.429688 144.890625 L 210.183594 144.890625 L 200.585938 154.558594 C 199.570312 155.582031 199.570312 157.257812 200.585938 158.28125 C 201.109375 158.804688 201.753906 159.054688 202.429688 159.054688 C 203.109375 159.054688 203.785156 158.804688 204.277344 158.28125 L 218.339844 144.113281 C 218.832031 143.617188 219.109375 142.9375 219.109375 142.253906 C 219.109375 141.574219 218.832031 140.890625 218.339844 140.394531 L 204.277344 126.230469 C 203.261719 125.207031 201.601562 125.207031 200.585938 126.230469 C 199.570312 127.253906 199.570312 128.925781 200.585938 129.949219 L 210.183594 139.621094 L 144.460938 139.621094 C 141.816406 139.621094 139.324219 140.828125 137.632812 142.90625 C 135.9375 144.984375 135.324219 147.679688 135.878906 150.3125 Z M 145.445312 195.566406 " fill-opacity="1" fill-rule="nonzero"/></g><path fill="#5d5d5d" d="M 151.078125 223.496094 C 151.078125 230.375 156.648438 235.984375 163.476562 235.984375 C 170.308594 235.984375 175.878906 230.375 175.878906 223.496094 C 175.878906 216.613281 170.308594 211.003906 163.476562 211.003906 C 156.648438 211.003906 151.078125 216.613281 151.078125 223.496094 Z M 170.648438 223.496094 C 170.648438 227.460938 167.445312 230.714844 163.476562 230.714844 C 159.507812 230.714844 156.308594 227.492188 156.308594 223.496094 C 156.308594 219.496094 159.507812 216.273438 163.476562 216.273438 C 167.445312 216.273438 170.648438 219.527344 170.648438 223.496094 Z M 170.648438 223.496094 " fill-opacity="1" fill-rule="nonzero"/><path fill="#5d5d5d" d="M 196.894531 223.496094 C 196.894531 230.375 202.460938 235.984375 209.292969 235.984375 C 216.125 235.984375 221.691406 230.375 221.691406 223.496094 C 221.691406 216.613281 216.125 211.003906 209.292969 211.003906 C 202.460938 211.003906 196.894531 216.613281 196.894531 223.496094 Z M 216.460938 223.496094 C 216.460938 227.460938 213.261719 230.714844 209.292969 230.714844 C 205.324219 230.714844 202.125 227.492188 202.125 223.496094 C 202.125 219.496094 205.324219 216.273438 209.292969 216.273438 C 213.261719 216.273438 216.460938 219.527344 216.460938 223.496094 Z M 216.460938 223.496094 " fill-opacity="1" fill-rule="nonzero"/><g clip-path="url(#c51c8f59ff)"><g clip-path="url(#f85c6f9dfc)"><g clip-path="url(#c0bf8d73f3)"><g clip-path="url(#0bdbfe3349)"><path fill="#000000" d="M 203.75 93.664062 L 203.222656 94.914062 L 197.074219 91.414062 C 196.335938 90.996094 195.398438 91.253906 194.976562 91.992188 C 194.558594 92.734375 194.816406 93.671875 195.554688 94.09375 L 202.027344 97.777344 L 201.039062 100.140625 L 199.6875 102.390625 L 193.1875 98.691406 C 192.449219 98.273438 191.511719 98.53125 191.09375 99.269531 C 190.675781 100.011719 190.933594 100.949219 191.667969 101.371094 L 198.105469 105.035156 L 197.289062 106.398438 C 197.289062 106.398438 195 109.371094 200.46875 112.121094 L 208.246094 116.035156 C 208.246094 116.035156 215.617188 119.253906 219.726562 112.199219 L 220.527344 110.382812 L 221.699219 108.34375 C 224.941406 100.851562 217.988281 96.804688 217.988281 96.804688 L 210.238281 92.84375 C 204.785156 90.058594 203.746094 93.667969 203.746094 93.667969 Z M 212.261719 104.953125 C 212.15625 106.066406 211.148438 106.878906 210.015625 106.769531 C 208.878906 106.660156 208.046875 105.667969 208.152344 104.558594 C 208.261719 103.445312 209.265625 102.632812 210.402344 102.742188 C 211.535156 102.851562 212.371094 103.84375 212.261719 104.957031 Z M 212.261719 104.953125 " fill-opacity="1" fill-rule="nonzero"/></g></g></g></g><g clip-path="url(#109c0cac88)"><g clip-path="url(#eb439630b7)"><g clip-path="url(#079820e9d7)"><g clip-path="url(#0f73dc3259)"><path stroke-linecap="butt" transform="matrix(0.0271254, -0.280797, 0.280239, 0.0270715, 150.28876, 203.407237)" fill="none" stroke-linejoin="miter" d="M 127.717782 273.234739 C 127.717782 273.234739 159.234768 265.235752 183.661561 271.569321 C 208.088353 277.90289 237.244584 285.242273 249.843343 265.567572 C 262.457215 245.905346 265.609769 222.907525 288.85438 229.24401 C 312.09766 235.566684 326.669384 253.238709 338.491436 246.574569 C 350.313488 239.910429 350.318253 201.577749 351.894138 197.578052 " stroke="#000000" stroke-width="10" stroke-opacity="1" stroke-miterlimit="10"/></g></g></g></g><g clip-path="url(#f831d22f24)"><path fill="#000000" d="M 197.597656 222.046875 L 188.421875 222.046875 L 194.066406 205.847656 L 177.425781 227.066406 L 186.601562 227.066406 L 180.957031 243.261719 Z M 197.597656 222.046875 " fill-opacity="1" fill-rule="nonzero"/></g></svg>